<svg width="119" height="22" viewBox="0 0 119 22" fill="none" xmlns="http://www.w3.org/2000/svg">
<path d="M28.122 21.4541V1.88019H30.3311V13.5686L41.5721 1.88019H44.4243L36.0355 10.4368L44.7878 21.4541H42.0195L34.4975 11.9747L30.3311 16.1971V21.4541H28.122ZM52.005 21.7617C47.1675 21.7617 43.8679 18.7976 43.8679 13.261V1.88019H46.0769V13.1212C46.0769 17.3715 48.286 19.7204 52.0609 19.7204C55.6681 19.7204 57.9611 17.5393 57.9611 13.261V1.88019H60.1701V13.0932C60.1701 18.8256 56.8985 21.7617 52.005 21.7617ZM61.7581 21.4541V1.88019H68.5531C74.7049 1.88019 78.9552 6.10256 78.9552 11.6112V11.6671C78.9552 17.1758 74.7049 21.4541 68.5531 21.4541H61.7581ZM63.9672 19.4128H68.5531C73.5025 19.4128 76.6622 16.0853 76.6622 11.7231V11.6671C76.6622 7.33292 73.5025 3.92147 68.5531 3.92147H63.9672V19.4128ZM89.084 21.7897C83.128 21.7897 79.1293 17.1199 79.1293 11.7231V11.6671C79.1293 6.27034 83.1839 1.54464 89.14 1.54464C95.096 1.54464 99.0947 6.21442 99.0947 11.6112V11.6671C99.0947 17.064 95.0401 21.7897 89.084 21.7897ZM89.14 19.7484C93.614 19.7484 96.8017 16.1691 96.8017 11.7231V11.6671C96.8017 7.22107 93.5581 3.58592 89.084 3.58592C84.61 3.58592 81.4222 7.16515 81.4222 11.6112V11.6671C81.4222 16.1132 84.6659 19.7484 89.14 19.7484ZM106.693 21.7337C103.561 21.7337 101.044 20.7271 98.6956 18.6019L100.066 16.9801C102.107 18.8536 104.064 19.7484 106.777 19.7484C109.433 19.7484 111.139 18.3502 111.139 16.4208V16.3649C111.139 14.5473 110.16 13.5406 106.05 12.6458C101.548 11.6671 99.4785 10.2131 99.4785 6.99737V6.94144C99.4785 3.89351 102.191 1.60056 105.91 1.60056C108.79 1.60056 110.775 2.41148 112.789 4.00536L111.502 5.71109C109.685 4.22906 107.867 3.58592 105.854 3.58592C103.281 3.58592 101.688 4.95609 101.688 6.74571V6.80163C101.688 8.64717 102.666 9.70976 107 10.6046C111.363 11.5833 113.376 13.1492 113.376 16.1412V16.1971C113.376 19.5526 110.58 21.7337 106.693 21.7337Z" fill="#DBD1C1"/>
<path d="M6.13716 7.14167L12.9032 9.29915C13.5873 9.53491 14.1809 10.3 13.6326 11.1319C13.2704 11.7591 10.569 14.3614 10.569 14.3614C10.5539 14.4104 1.84111 11.55 1.84111 11.55C1.13181 11.3098 0.719313 10.6559 0.950716 9.89523C1.18212 9.13456 5.31719 6.85253 6.13716 7.13722V7.14167Z" fill="#B72927"/>
<path d="M6.14198 7.13777L12.908 9.29524C13.5922 9.53101 14.1858 10.2961 13.6374 11.128C13.2752 11.7552 10.5739 14.3575 10.5739 14.3575C10.5588 14.4065 1.84594 11.5461 1.84594 11.5461C1.13664 11.3059 0.724135 10.652 0.955538 9.89133C1.18694 9.13065 5.32201 6.84862 6.14198 7.13332V7.13777Z" fill="url(#paint0_linear_6885_9045)" style="mix-blend-mode:multiply"/>
<path d="M6.13716 7.13777L12.9032 9.29524C13.5873 9.53101 14.1809 10.2961 13.6326 11.128C13.2704 11.7552 10.569 14.3575 10.569 14.3575C10.5539 14.4065 1.84111 11.5461 1.84111 11.5461C1.13181 11.3059 0.719313 10.652 0.950716 9.89133C1.18212 9.13065 5.31719 6.84862 6.13716 7.13332V7.13777Z" fill="url(#paint1_linear_6885_9045)" style="mix-blend-mode:multiply"/>
<path d="M14.794 6.80832C15.0405 6.60814 18.6473 3.65885 23.2855 0.109029C23.3458 0.060097 23.2855 -0.0244226 23.21 0.00671617C21.072 0.972019 16.776 1.8617 16.776 1.8617L7.96255 3.31188C4.95934 3.85458 4.68266 4.29942 3.47031 6.0254L3.14836 6.47469C3.13327 6.49693 2.62016 7.31544 0.970154 9.84658C1.4732 9.077 2.04165 9.01473 5.42215 8.45423C6.06605 8.33412 7.60035 8.02273 8.56118 7.84925C9.89426 7.60903 14.4368 6.8706 14.7588 6.81722C14.7738 6.81722 14.7789 6.81277 14.7889 6.80387L14.794 6.80832Z" fill="#E73928"/>
<path d="M3.45092 13.352L0 18.8369L6.77608 17.4223C9.77426 16.8663 10.0509 16.4214 11.2583 14.691L11.5802 14.2373C11.5802 14.2373 11.9676 13.7123 13.6327 11.1367C13.1598 11.9018 11.3035 11.8885 9.30139 12.2711C8.65749 12.3956 3.45595 13.352 3.45595 13.352H3.45092Z" fill="#E73928"/>
<defs>
<linearGradient id="paint0_linear_6885_9045" x1="9.45708" y1="14.8691" x2="6.87262" y2="7.81979" gradientUnits="userSpaceOnUse">
<stop stop-color="white"/>
<stop offset="0.32" stop-color="#FDFCFD"/>
<stop offset="0.47" stop-color="#F9F5F6"/>
<stop offset="0.57" stop-color="#F2E9EA"/>
<stop offset="0.66" stop-color="#E8D7DA"/>
<stop offset="0.74" stop-color="#DABFC4"/>
<stop offset="0.81" stop-color="#CAA3AA"/>
<stop offset="0.87" stop-color="#B6818B"/>
<stop offset="0.93" stop-color="#A05966"/>
<stop offset="0.98" stop-color="#872D3E"/>
<stop offset="1" stop-color="#7E1E30"/>
</linearGradient>
<linearGradient id="paint1_linear_6885_9045" x1="7.85256" y1="11.2125" x2="9.85315" y2="15.3438" gradientUnits="userSpaceOnUse">
<stop stop-color="white"/>
<stop offset="0.22" stop-color="#FCFCFC"/>
<stop offset="0.35" stop-color="#F3F3F3"/>
<stop offset="0.47" stop-color="#E5E5E5"/>
<stop offset="0.57" stop-color="#D0D0D0"/>
<stop offset="0.66" stop-color="#B5B5B5"/>
<stop offset="0.75" stop-color="#959595"/>
<stop offset="0.83" stop-color="#6D6D6D"/>
<stop offset="0.91" stop-color="#404040"/>
<stop offset="0.98" stop-color="#0E0E0E"/>
<stop offset="1"/>
</linearGradient>
</defs>
</svg>
